<?xml version="1.0" standalone="no"?>
<!DOCTYPE svg PUBLIC "-//W3C//DTD SVG 20010904//EN"
 "http://www.w3.org/TR/2001/REC-SVG-20010904/DTD/svg10.dtd">
<svg version="1.0" xmlns="http://www.w3.org/2000/svg"
 width="602.000000pt" height="602.000000pt" viewBox="0 0 602.000000 602.000000"
 preserveAspectRatio="xMidYMid meet">
<metadata>
Created by potrace 1.16, written by Peter Selinger 2001-2019
</metadata>
<g transform="translate(0.000000,602.000000) scale(0.100000,-0.100000)"
fill="#000000" stroke="none">
<path d="M2730 6014 c-263 -32 -526 -90 -725 -162 -674 -243 -1220 -691 -1585
-1301 l-81 -136 1620 -3 1620 -2 566 -676 c312 -372 569 -682 572 -690 4 -12
-63 -14 -458 -12 l-463 3 -276 327 -275 328 -1117 0 c-615 0 -1118 -2 -1118
-3 0 -2 -16 -66 -35 -143 -123 -488 -73 -978 145 -1419 250 -506 673 -876
1204 -1050 398 -131 804 -140 1215 -26 167 46 327 117 501 221 l117 70 502 0
c361 0 501 -3 501 -11 0 -26 -169 -215 -303 -338 -353 -325 -777 -551 -1238
-661 -561 -133 -1154 -90 -1676 121 -384 155 -682 356 -973 655 -603 621 -880
1500 -744 2364 8 52 19 111 23 130 5 19 12 47 15 63 l6 27 -99 0 -99 0 -12
-52 c-46 -215 -54 -308 -55 -623 0 -277 2 -325 23 -455 212 -1321 1211 -2320
2532 -2532 129 -20 179 -23 450 -23 271 0 321 3 450 23 907 146 1673 662 2140
1441 l81 136 -1661 5 -1662 5 -569 680 c-313 374 -569 683 -569 687 0 5 208 7
462 6 l463 -3 275 -327 275 -327 1116 -1 1116 0 26 92 c58 210 77 352 77 567
0 323 -64 607 -199 886 -461 954 -1546 1405 -2546 1058 -118 -41 -327 -144
-422 -208 l-68 -45 -507 0 c-307 0 -508 4 -508 9 0 19 161 200 276 310 445
426 1010 686 1630 751 161 17 456 15 609 -4 343 -44 603 -121 910 -271 266
-130 470 -274 693 -490 212 -205 369 -409 516 -672 295 -530 405 -1202 294
-1803 -11 -63 -23 -130 -26 -147 l-4 -33 135 0 135 0 12 53 c46 214 54 307 55
622 0 353 -13 469 -85 750 -275 1076 -1116 1912 -2192 2180 -260 64 -369 77
-688 80 -157 2 -301 1 -320 -1z"/>
</g>
</svg>
