<svg xmlns="http://www.w3.org/2000/svg" viewBox="0 0 350.09 341.72"><defs><style>.cls-1{fill:#eee;}</style></defs><g id="Layer_2" data-name="Layer 2"><g id="Layer_1-2" data-name="Layer 1"><path class="cls-1" d="M350.09,184.51c-.63,5.41-1.18,10.83-1.9,16.23A164.67,164.67,0,0,1,324.11,267C309.86,289.64,291.71,308.6,269,323A173.1,173.1,0,0,1,231.15,341c-7.37,2.48-12.48-1.35-12.51-9.12-.08-15.27,0-30.54,0-45.81,0-9.3-1-18.47-6.05-26.62-1.49-2.37-3.36-4.51-5.12-6.83,6.83-1.28,13.68-2.19,20.33-3.88,17.86-4.53,33.83-12.43,44.71-28,8-11.46,11.66-24.62,13.27-38.34,1.25-10.66,1.61-21.35-.64-32a62.67,62.67,0,0,0-14-28.49,5.59,5.59,0,0,1-1.24-6.29c4.7-14.2,2.73-28.09-2.54-41.71a3.68,3.68,0,0,0-2.55-1.65c-6.21-.93-12.07.83-17.51,3.4-8.83,4.17-17.36,8.95-26.1,13.31a8,8,0,0,1-5,.86,165.21,165.21,0,0,0-82.14,0,7.6,7.6,0,0,1-5.31-1A125.75,125.75,0,0,0,93,72.7c-.22-.06-.44-.14-.66-.19-8-1.64-9.5-.72-11.79,7-3.69,12.54-4.36,25,0,37.6a4.24,4.24,0,0,1-.77,3.52c-14.43,16.39-17.85,35.84-16,56.8a100.5,100.5,0,0,0,9.72,36.38c7.86,15.86,21.16,25.55,37.28,31.24,10.11,3.57,20.84,5.43,31.45,8.1.09-.51.15-.11,0,.07a37.23,37.23,0,0,0-9.8,20.27c-.16,1-.84,2.37-1.62,2.67-12.16,4.57-24.39,7-36.41-.36-5.46-3.33-9.45-8.15-12.67-13.63-5-8.59-12.16-14.82-21.73-17.66-3.44-1-7.36-.76-11-.55-2.51.15-3.33,2-1.65,4.12,1.55,1.94,3.13,4.13,5.2,5.32,9.2,5.3,14.35,13.76,18.57,23,2.5,5.49,4.66,11.09,9.31,15.31,7.41,6.73,16.39,9.26,26,9.69,8.15.35,16.33.07,24.87.07a8.35,8.35,0,0,1,.17,1.6c.12,9.23.25,18.46.31,27.69.07,9-5.35,12.77-13.92,9.79C73.37,325.15,40.76,295.94,19,254.64,2.61,223.55-2.56,190.15,1.14,155.29,5,118.78,19.45,86.84,43.55,59.43c25.19-28.65,56.54-47.7,94-55.31,54.44-11.07,104.16,0,147.69,35,33,26.53,53.43,61,61.67,102.61,1.22,6.13,1.68,12.4,2.51,18.61.16,1.21.43,2.41.65,3.62Z"/></g></g></svg>